<svg xmlns="http://www.w3.org/2000/svg" viewBox="0 0 24 24" xmlns:v="https://vecta.io/nano"><path d="M8.5 2.5l-6 6v7l6 6h7l6-6v-7l-6-6zM10 9h4l1.5 3-1.5 3h-4l-1.5-3z" fill="#fff"/><path d="m12 2v7l2 1 5-5-7-3zm-7 3-3 7h7l1-2-5-5zm10 7-1 2 5 5 3-7h-7zm-5 2-5 5 7 3v-7l-2-1z" fill="#fc2828"/><g fill="none" stroke="#000" stroke-linejoin="round" stroke-width="1.5"><circle cx="12" cy="12" r="3.25" paint-order="stroke fill markers"/><circle cx="12" cy="12" r="9.75" paint-order="stroke fill markers"/></g></svg>