<?xml version="1.0" encoding="UTF-8" standalone="no"?>
<svg
   viewbox="0 0 128 128"
   version="1.1"
   id="svg8"
   sodipodi:docname="bye.svg"
   inkscape:export-filename="..\..\..\..\Downloads\Godot\salty\disclaimer\5.png"
   inkscape:export-xdpi="384"
   inkscape:export-ydpi="384"
   inkscape:version="1.3 (0e150ed6c4, 2023-07-21)"
   xmlns:inkscape="http://www.inkscape.org/namespaces/inkscape"
   xmlns:sodipodi="http://sodipodi.sourceforge.net/DTD/sodipodi-0.dtd"
   xmlns="http://www.w3.org/2000/svg"
   xmlns:svg="http://www.w3.org/2000/svg">
  <defs
     id="defs8" />
  <sodipodi:namedview
     id="namedview8"
     pagecolor="#505050"
     bordercolor="#ffffff"
     borderopacity="1"
     inkscape:showpageshadow="0"
     inkscape:pageopacity="0"
     inkscape:pagecheckerboard="1"
     inkscape:deskcolor="#d1d1d1"
     inkscape:zoom="2.3433333"
     inkscape:cx="102.63158"
     inkscape:cy="70.625889"
     inkscape:window-width="1920"
     inkscape:window-height="1027"
     inkscape:window-x="-8"
     inkscape:window-y="-8"
     inkscape:window-maximized="1"
     inkscape:current-layer="svg8" />
  <path
     d="M50.366 1.597C56.08.151 62.779 2.933 63.908 11.647l.188 1.381c-.369-14.241 20.88-14.269 20.867-1.44-.019 19.992 1.403 37.425 5.824 55.67l3.986 38.801c-7.921 1.918-16.33 3.084-29.94 7.108-20.076 5.939-26.631-16.508-35.199-36.693-4.956-11.675-11.206-22.805-17.188-31.359-7.99-11.421 5.441-21.345 13.505-13.534l-.068-.122C16.647 15.681 36.25 6.352 43.193 18.239l-.461-1.318c-2.808-8.206 1.92-13.877 7.635-15.324z"
     fill="#6594e5"
     paint-order="stroke fill markers"
     id="path1" />
  <path
     d="M88.3 67.861c-4.421-18.245-6.521-35.557-7.19-55.34-.284-8.409-14.951-7.973-13.486.954 2.628 15.989 5.361 28.614 7.108 41.869l-5.187.336c-3.459-13.231-6.676-29.935-8.934-44.392C58.882.24 41.962 3.675 45.672 15.199c4.051 12.586 9.832 29.143 11.935 42.454l-4.199 1.426c-4.656-11.458-8.87-23.478-11.844-35.757-2.84-11.726-20.7-4.755-13.193 7.534 6.728 11.014 10.423 22.734 15.333 33.45l-3.755 2.029c-4.147-7.946-9.49-18.942-12.688-27.773-4.367-12.061-17.99-4.35-11.511 5.75 5.638 8.786 11.416 19.885 16.371 31.559 8.568 20.185 16.607 39.393 32.106 34.809 13.611-4.026 22.022-5.192 29.942-7.11"
     fill="#c8f3ff"
     paint-order="stroke fill markers"
     id="path2" />
  <path
     d="M108.474 34.899c-10.783-7.508-26.476-.671-19.391 27.975-15.919-4.239-31.056 15.994-22.261 28.671 8.488 12.231 23.579 15.574 27.951 14.513 20.166-4.885 11.508-46.194 13.701-71.16z"
     fill="#6594e5"
     paint-order="stroke fill markers"
     id="path3" />
  <path
     d="M104.778 36.951c-11.978-7.074-17.352 5.361-11.293 29.773-15.919-4.239-29.905 11.439-26.663 24.822s13.828 15.301 27.348 12.026c18.3-4.433 8.415-41.654 10.608-66.621z"
     fill="#c8f3ff"
     paint-order="stroke fill markers"
     id="path4" />
  <path
     d="M10.153 52.875c-5.933 10.276 0 37.189 19.771 40.955-10.356-7.69-19.928-23.694-19.77-40.955z"
     fill="#ffc2ee"
     paint-order="stroke markers fill"
     id="path5" />
  <path
     d="M3.255 76.033c-3.22 7.77 3.601 24.25 19.846 22.962-8.007-3.158-16.952-11.811-19.846-22.962z"
     fill="#f63886"
     paint-order="stroke markers fill"
     id="path6" />
  <path
     d="M95.796 5.877c11.462 3.071 26.296 26.296 14.979 42.94 1.886-12.76-2.663-30.846-14.98-42.94z"
     fill="#ffc2ee"
     paint-order="stroke markers fill"
     id="path7" />
  <path
     d="M111.767 8.695c8.317 1.255 18.908 15.606 9.415 28.853 1.431-8.489-1.36-20.617-9.415-28.853z"
     fill="#f63886"
     paint-order="stroke markers fill"
     id="path8" />
</svg>
