<svg xmlns="http://www.w3.org/2000/svg" width="420" height="160" xmlns:v="https://vecta.io/nano"><path d="M259.475 40.055c-4.25 0-5.17 2.305-5.17 5.428 0 3.226 2.098 4.965 5.17 4.965 3.174 0 5.377-2.047 5.377-4.607 0-3.635-2.203-5.785-5.377-5.785zm-54.811.133c-2.811-.04-6.536.392-6.76.584-.358.307-.103 37.939.102 38.246s9.575.41 9.729.205c.205-.154.256-12.697.256-14.131 0-1.536 1.023-3.328 3.174-3.328s2.867 2.253 2.867 3.84l-.051 13.773c.102.102 9.523-.001 9.83-.359s.77-11.059.77-14.592c0-6.656-3.174-11.418-10.752-11.418-3.533 0-5.172 1.28-6.35 2.662.205-1.587.511-13.364.307-14.746-.077-.518-1.434-.712-3.121-.736zm73.473 2.527c-3.444-.046-9.243.347-10.203.77 0 9.83 4.301 20.276 4.506 20.48s3.687.563 4.045 0 3.891-8.806 4.045-21.043c-.358-.128-1.245-.192-2.393-.207zm-39.857 10.191c-7.219 0-10.805 5.12-10.805 5.939 0 .717 4.096 4.402 4.557 4.402s2.1-1.945 4.66-1.945c4.454 0 3.686 3.379 3.635 4.096-.87-.461-1.946-.973-3.994-.973-5.018 0-9.062 2.817-9.062 7.322 0 4.71 2.254 7.781 7.477 7.781 4.301 0 6.4-2.867 6.4-2.867l.563 2.201s7.885.307 8.039 0 .408-8.96.408-14.797c0-7.526-5.682-11.16-11.877-11.16zm19.301.209c-1.755.009-3.194.091-3.328.303-.358.563.052 25.497.154 25.65s9.217.308 9.422-.051.818-25.395.613-25.6c-.128-.128-3.936-.317-6.861-.303zm17.061 14.279c-3.686 0-6.246 2.357-6.246 5.326 0 4.25 2.56 6.707 6.246 6.707 4.966 0 5.99-2.664 5.99-6.299 0-3.738-2.406-5.734-5.99-5.734zm-36.977 2.1c1.178 0 2.15.922 2.15 2.1s-.717 2.1-2.15 2.1c-1.178 0-2.1-.922-2.1-2.1s.82-2.1 2.1-2.1z" fill="#fffcbc" paint-order="stroke fill markers"/><path d="M389.738 40.496c-1.069.006-2.146.147-2.248.326-.154 7.782-.204 38.092-.152 38.297.102.307 4.249.461 4.352.205.154-.154.205-12.39.205-14.643 0-2.97 2.561-5.99 6.605-5.99 3.789 0 5.836 2.969 5.836 6.246l-.102 14.131c.205.154 4.094.411 4.248-.152.256-2.253.514-11.01.514-14.133 0-6.554-3.994-10.187-9.729-10.187-3.686 0-6.502 2.048-7.475 3.789.102-.614.204-16.333.152-17.408-.077-.358-1.138-.487-2.207-.48zm-97.115 7.385c-1.116-.031-3.219.162-3.564.469-.461.461-.307 6.093-.461 6.195s-4.506-.104-4.711-.053c-.512.154-.256 3.43-.051 3.584.256.154 4.711.205 4.711.256s-.564 11.163-.666 13.979c-.051 4.352 2.047 7.423 7.014 7.475 4.403.102 6.965-2.252 6.965-2.252-.051-.614-.871-3.072-1.383-3.328-.461 0-2.151 1.586-4.762 1.535-2.509-.051-3.328-1.69-3.328-4.045l.512-13.107c0-.205 8.089.256 8.447-.051 0 0 .41-3.02-.051-3.43-.512-.41-8.089-.411-8.191-.359-.102 0 .461-6.502.205-6.758-.051-.064-.314-.099-.686-.109zm43.635 6.451c-.723.017-1.306.116-1.363.365-.205 2.355-.77 11.417-.77 15.309 0 6.144 2.765 9.984 9.268 9.984 3.226 0 6.452-1.793 7.834-3.738-.051.307-.052 2.101-.104 3.125.358.461 3.841.665 4.148.102l.666-24.525c-.205-.256-4.147-.358-4.301-.102-.154.205-.462 12.902-.514 14.592-.102 3.635-2.662 6.502-6.758 6.502-3.789-.051-5.734-2.305-5.734-6.145 0-2.765.615-13.72.615-15.205-.192-.096-1.784-.293-2.988-.264zm37.273.16c-7.782 0-11.828 6.35-11.828 12.545s3.278 12.596 11.982 12.596c3.686 0 6.654-1.639 8.088-3.533-.666-1.434-1.74-3.021-2.047-2.816-.717.512-2.919 2.252-5.939 2.252-2.611 0-7.525-1.381-7.525-8.293 0-5.53 3.225-8.5 7.525-8.5 3.533 0 5.99 2.305 6.451 2.305.614-.051 1.741-3.072 1.588-3.635-.154-.512-3.175-2.92-8.295-2.92zm-56.852.053c-7.578 0-11.775 6.092-11.775 12.287 0 8.038 5.018 12.748 11.879 12.748 7.68-.154 11.775-5.479 11.775-12.391 0-8.346-5.069-12.645-11.879-12.645zm.104 4.453c3.891.051 7.32 1.843 7.32 8.09 0 5.325-2.508 8.397-7.475 8.346-3.891 0-7.27-2.662-7.27-8.396 0-4.557 2.355-8.09 7.424-8.039z" fill="#fff" paint-order="stroke fill markers"/><g transform="matrix(1.236385 -.331288 .331288 1.236385 -363.86329 -629.16813)"><path d="M183.542 567.643c4.604.064 9.096 3.518 8.187 10.322l-.137 1.081c2.601-10.822 18.642-6.547 16.039 3.132-4.058 15.084-6.509 28.527-6.862 43.189l-4.838 30.085c-6.365-.154-12.947-.975-24.031-.689-16.351.421-16.759-17.843-19.143-34.808-1.379-9.812-3.845-19.475-6.631-27.14-3.719-10.234 8.422-15.007 12.928-7.481l-.027-.106c-3.778-13.774 12.901-16.85 15.737-6.476l-.081-1.088c-.46-6.759 4.255-10.084 8.859-10.02z" fill="#6594e5" paint-order="stroke fill markers"/><path d="M198.769 625.318c.353-14.662 2.269-28.152 5.764-43.215 1.486-6.403-9.671-9.041-10.37-2.007-1.251 12.596-1.741 22.677-3.103 33.033l-3.982-.795c.065-10.684 1.016-23.94 2.234-35.305.931-8.687-12.533-9.516-12.064-.071.512 10.318 1.527 23.981.422 34.451l-3.458.227c-1.196-9.588-1.945-19.511-1.707-29.378.227-9.423-14.659-7.774-11.479 3.017 2.85 9.672 3.268 19.263 4.807 28.344l-3.244.772c-1.523-6.835-3.331-16.214-3.959-23.525-.857-9.985-12.696-6.92-9.849 2.012 2.477 7.77 4.594 17.314 5.973 27.126 2.384 16.965 4.566 33.085 17.191 32.76 11.084-.286 17.667.536 24.032.69" fill="#c8f3ff" paint-order="stroke fill markers"/><path d="M220.658 604.523c-6.619-7.847-19.844-5.86-20.291 17.19-11.156-6.419-26.67 5.789-22.595 17.135 3.931 10.946 14.644 16.52 18.158 16.604 16.206.391 18.025-32.533 24.728-50.929z" fill="#6594e5" paint-order="stroke fill markers"/><path d="M217.455 605.324c-7.609-7.761-14.179.536-14.543 20.184-11.156-6.419-24.88 2.584-25.139 13.34s7.341 14.343 18.206 14.605c14.706.355 14.773-29.732 21.476-48.129z" fill="#c8f3ff" paint-order="stroke fill markers"/></g><g transform="matrix(1.236385 .331288 -.331288 1.236385 101.14384 -728.4043)"><path d="M188.613 569.209c-4.604-.047-9.179 3.297-8.434 10.121l.111 1.084c-2.339-10.882-18.479-6.994-16.109 2.744 2.454 10.085 4.196 19.432 5.102 28.869-3.392-12.735-13.131-13.091-18.664-6.844 6.257 18.553 7.281 51.51 23.492 51.51 6.367 0 12.967-.662 24.041-.109 16.336.815 17.184-17.434 19.977-34.336 1.615-9.776 4.314-19.377 7.283-26.973 3.965-10.141-8.058-15.206-12.744-7.791.011-.035.019-.07.029-.105 4.109-13.679-12.491-17.156-15.576-6.854l.107-1.086c.623-6.746-4.011-10.184-8.615-10.23z" fill="#f63886" paint-order="stroke fill markers"/><path d="M188.641 571.76c-3.193.036-6.382 2.34-6.021 6.693.944 11.391 1.573 24.665 1.381 35.348l-4 .699c-1.112-10.385-1.358-20.475-2.305-33.098-.529-7.049-11.747-4.682-10.416 1.756 3.026 14.633 4.598 27.77 4.701 41.871a16.1 16.1 0 0 0-4.127 1.561c.11-19.651-6.256-28.104-14.051-20.529 6.257 18.553 5.598 48.633 20.309 48.633 6.367 0 12.967-.662 24.041-.109 12.613.63 15.184-15.434 17.977-32.336 1.615-9.776 3.961-19.264 6.625-26.973 3.062-8.861-8.699-12.211-9.797-2.25-.804 7.294-2.838 16.625-4.525 23.422l-3.225-.85c1.757-9.041 2.407-18.618 5.49-28.219 3.439-10.712-11.404-12.72-11.404-3.295 0 9.87-.987 19.774-2.414 29.33l-3.451-.311c-.852-10.494.491-24.129 1.252-34.432.348-4.715-2.846-6.948-6.039-6.912z" fill="#ffc2ee" paint-order="stroke fill markers"/></g><path d="M310.903 84.258c-.061.061-5.887 13.991-10.361 24.727l1.531 6.199a1.5 1.5 0 0 1-1.225 1.842l-3.906.615-1.23 2.959c-.045.583 4.902 1.389 5.529 1.523.384.082 5.899-13.272 10.256-24.006a1.5 1.5 0 0 1-.342-.902l.041-7.92a1.5 1.5 0 0 1 1.473-1.492l3-.055.988-2.504c-.045-.224-5.754-.986-5.754-.986zm-69.371 22.764c-3.908-.251-6.014 1.903-6.014 5.41 0 3.106 2.404 5.162 4.709 5.262 3.556.091 5.64-1.615 5.99-4.525-1.219-1.648-2.072-3.539-2.555-5.643a5.73 5.73 0 0 0-2.131-.504z" fill="#7e708a"/><path d="M258.476 88.664c-4.28-.04-7.64 1.239-10.08 3.799s-3.681 6-3.721 10.32c-.04 4.24 1.08 7.68 3.4 10.32 2.32 2.6 5.56 3.84 9.76 3.68 3.84-.12 7.32-1.441 9.08-3.641l.279-12.799-10.16.16-.359 5.6 3.84-.08.041 3.041c-.56.2-1.281.318-2.121.318-3.36.04-5.72-2.359-5.76-6.559-.04-3.88 1.76-6.72 5.6-6.92 1.08-.04 2.24.119 3.48.479s2.16.921 2.84 1.641l2.041-7c-1.88-1.52-4.6-2.319-8.16-2.359zm35.499 0l-9.961 1.08-7.039 25.52 7.359 1.52 1.32-4.84 6-.119 1.08 4.959 7.881-1.24zm38.439.279l-19.719.359-.041 7.92 6-.359.08 19.279h6.961l.398-19.68 6.32-.359zm28.521.279l-17.121 1.08.52 25.84h15.76l.281-6.719-9.281.6v-3.6h5.682l.039-6.041-5.76.4-.041-4.32 9.201.281zm-72.16 6.24h.08l1.959 10.32-3.959-.16z" fill="#fff" fill-opacity=".78" paint-order="stroke fill markers"/></svg>