<?xml version="1.0" encoding="UTF-8" standalone="no"?>
<svg
   id="eQDJpaBvkjY1"
   viewBox="0 0 420 160"
   shape-rendering="geometricPrecision"
   text-rendering="geometricPrecision"
   version="1.1"
   sodipodi:docname="haitouch_logo_wide_ru.svg"
   inkscape:version="1.2.2 (732a01da63, 2022-12-09)"
   xmlns:inkscape="http://www.inkscape.org/namespaces/inkscape"
   xmlns:sodipodi="http://sodipodi.sourceforge.net/DTD/sodipodi-0.dtd"
   xmlns="http://www.w3.org/2000/svg"
   xmlns:svg="http://www.w3.org/2000/svg">
  <defs
     id="defs54" />
  <sodipodi:namedview
     id="namedview52"
     pagecolor="#505050"
     bordercolor="#ffffff"
     borderopacity="1"
     inkscape:showpageshadow="0"
     inkscape:pageopacity="0"
     inkscape:pagecheckerboard="1"
     inkscape:deskcolor="#505050"
     showgrid="false"
     inkscape:zoom="2.9119048"
     inkscape:cx="344.44808"
     inkscape:cy="93.066231"
     inkscape:window-width="1920"
     inkscape:window-height="1027"
     inkscape:window-x="-8"
     inkscape:window-y="-8"
     inkscape:window-maximized="1"
     inkscape:current-layer="g49" />
  <style
     id="style2"><![CDATA[

    #hai_text {
      animation: hai_text__to 10000ms linear infinite normal forwards
    }

    @keyframes hai_text__to {
      0% {
        transform: translate(231.288239px, 59.791016px)
      }

      34% {
        transform: translate(231.288239px, 59.791016px);
        animation-timing-function: cubic-bezier(0.3, 0, 0.3, 1)
      }

      44% {
        transform: translate(239.291158px, 59.791016px)
      }

      84% {
        transform: translate(239.291158px, 59.791016px);
        animation-timing-function: cubic-bezier(0.3, 0, 0.3, 1)
      }

      94% {
        transform: translate(231.288239px, 59.791016px)
      }

      100% {
        transform: translate(231.288239px, 59.791016px)
      }
    }

    #exclam {
      animation: exclam_c_o 10000ms linear infinite normal forwards;
      will-change: opacity
    }

    @keyframes exclam_c_o {
      0% {
        opacity: 1
      }

      34% {
        opacity: 1;
        animation-timing-function: cubic-bezier(0.3, 0, 0.3, 1)
      }

      44% {
        opacity: 0
      }

      84% {
        opacity: 0;
        animation-timing-function: cubic-bezier(0.3, 0, 0.3, 1)
      }

      94% {
        opacity: 1
      }

      100% {
        opacity: 1
      }
    }

    #touch_text {
      animation: touch_text__to 10000ms linear infinite normal forwards
    }

    @keyframes touch_text__to {
      0% {
        transform: translate(346.291687px, 60.242998px)
      }

      34% {
        transform: translate(346.291687px, 60.242998px);
        animation-timing-function: cubic-bezier(0.3, 0, 0.3, 1)
      }

      44% {
        transform: translate(338.293979px, 60.242998px)
      }

      84% {
        transform: translate(338.293979px, 60.242998px);
        animation-timing-function: cubic-bezier(0.3, 0, 0.3, 1)
      }

      94% {
        transform: translate(346.291687px, 60.242998px)
      }

      100% {
        transform: translate(346.291687px, 60.242998px)
      }
    }

    #hand {
      animation: hand__to 10000ms linear infinite normal forwards
    }

    @keyframes hand__to {
      0% {
        transform: translate(-363.863281px, -629.168152px);
        animation-timing-function: cubic-bezier(0.63, -0.005, 0.835, 0.57)
      }

      30% {
        transform: translate(-363.863281px, -629.168152px);
        animation-timing-function: cubic-bezier(0.63, -0.005, 0.835, 0.57)
      }

      34% {
        transform: translate(-210px, -696px);
        animation-timing-function: cubic-bezier(0.03, 0.14, 0.08, 1.005)
      }

      50% {
        transform: translate(-363.863281px, -629.168152px)
      }

      80% {
        transform: translate(-363.863281px, -629.168152px);
        animation-timing-function: cubic-bezier(0.63, -0.005, 0.835, 0.57)
      }

      84% {
        transform: translate(-210px, -696px);
        animation-timing-function: cubic-bezier(0.03, 0.14, 0.08, 1.005)
      }

      100% {
        transform: translate(-363.863281px, -629.168152px)
      }
    }

    #hand_tr {
      animation: hand_tr__tr 10000ms linear infinite normal forwards
    }

    @keyframes hand_tr__tr {
      0% {
        transform: rotate(-14.999985deg);
        animation-timing-function: cubic-bezier(0.63, -0.005, 0.835, 0.57)
      }

      30% {
        transform: rotate(-14.999985deg);
        animation-timing-function: cubic-bezier(0.63, -0.005, 0.835, 0.57)
      }

      34% {
        transform: rotate(-5deg);
        animation-timing-function: cubic-bezier(0.03, 0.14, 0.08, 1.005)
      }

      50% {
        transform: rotate(-14.999985deg)
      }

      80% {
        transform: rotate(-14.999985deg);
        animation-timing-function: cubic-bezier(0.63, -0.005, 0.835, 0.57)
      }

      84% {
        transform: rotate(-5deg);
        animation-timing-function: cubic-bezier(0.03, 0.14, 0.08, 1.005)
      }

      100% {
        transform: rotate(-14.999985deg)
      }
    }

    #dot_to {
      animation: dot_to__to 10000ms linear infinite normal forwards
    }

    @keyframes dot_to__to {
      0% {
        transform: translate(219px, 100px)
      }

      35% {
        transform: translate(219px, 100px);
        animation-timing-function: cubic-bezier(0.3, 0, 0.3, 1)
      }

      45% {
        transform: translate(229px, 100px)
      }

      85% {
        transform: translate(229px, 100px);
        animation-timing-function: cubic-bezier(0.3, 0, 0.3, 1)
      }

      95% {
        transform: translate(219px, 100px)
      }

      100% {
        transform: translate(219px, 100px)
      }
    }

    #slash_to {
      animation: slash_to__to 10000ms linear infinite normal forwards
    }

    @keyframes slash_to__to {
      0% {
        transform: translate(275px, 100px)
      }

      38% {
        transform: translate(275px, 100px);
        animation-timing-function: cubic-bezier(0.3, 0, 0.3, 1)
      }

      48% {
        transform: translate(298px, 100px)
      }

      88% {
        transform: translate(298px, 100px);
        animation-timing-function: cubic-bezier(0.3, 0, 0.3, 1)
      }

      98% {
        transform: translate(275px, 100px)
      }

      100% {
        transform: translate(275px, 100px)
      }
    }

    #g_group {
      animation: g_move 10000ms linear infinite normal forwards
    }

    @keyframes g_move {
      0% {
        transform: translate(206px);
      }
      
      38% {
        transform: translate(206px);
        animation-timing-function: cubic-bezier(0.3, 0, 0.3, 1)
      }

      48% {
        transform: translate(248px)
      }

      88% {
        transform: translate(248px);
        animation-timing-function: cubic-bezier(0.3, 0, 0.3, 1)
      }

      98% {
        transform: translate(206px)
      }

      to {
        transform: translate(206px)
      }
    }

    #a_group {
      animation: a_move 10000ms linear infinite normal forwards
    }

    @keyframes a_move {
      0% {
        transform: translate(230px)
      }

      38% {
        transform: translate(230px);
        animation-timing-function: cubic-bezier(0.3, 0, 0.3, 1)
      }

      48% {
        transform: translate(276px)
      }

      88% {
        transform: translate(276px);
        animation-timing-function: cubic-bezier(0.3, 0, 0.3, 1)
      }

      98% {
        transform: translate(230px)
      }

      100% {
        transform: translate(230px)
      }
    }
    #l_group {
      animation: l_move 10000ms linear infinite normal forwards
    }

    @keyframes l_move {
      0% {
        transform: translate(257px)
      }

      38% {
        transform: translate(257px);
        animation-timing-function: cubic-bezier(0.3, 0, 0.3, 1)
      }

      48% {
        transform: translate(313px)
      }

      88% {
        transform: translate(313px);
        animation-timing-function: cubic-bezier(0.3, 0, 0.3, 1)
      }

      98% {
        transform: translate(257px)
      }

      100% {
        transform: translate(257px)
      }
    }

    #ya_group {
      animation: ya_move 10000ms linear infinite normal forwards
    }

    @keyframes ya_move {
      0% {
        transform: translate(285px)
      }

      38% {
        transform: translate(285px);
        animation-timing-function: cubic-bezier(0.3, 0, 0.3, 1)
      }

      48% {
        transform: translate(344px)
      }

      88% {
        transform: translate(344px);
        animation-timing-function: cubic-bezier(0.3, 0, 0.3, 1)
      }

      98% {
        transform: translate(285px)
      }

      100% {
        transform: translate(285px)
      }
    }

    #igrat {
      animation: igrat_move 10000ms linear infinite normal forwards
    }

    @keyframes igrat_move {
      0% {
        transform: translate(356px)
      }

      38% {
        transform: translate(356px);
        animation-timing-function: cubic-bezier(0.3, 0, 0.3, 1)
      }

      48% {
        transform: translate(360px)
      }

      88% {
        transform: translate(360px);
        animation-timing-function: cubic-bezier(0.3, 0, 0.3, 1)
      }

      98% {
        transform: translate(356px)
      }

      100% {
        transform: translate(356px)
      }
    }

    #dot, #slash {
      animation: dot_fade 10000ms linear infinite normal forwards;
      will-change: opacity;
    }

    @keyframes dot_fade {
      0% {
        opacity: 0
      }

      38% {
        opacity: 0;
        animation-timing-function: cubic-bezier(0.3, 0, 0.3, 1)
      }

      48% {
        opacity: 1
      }

      88% {
        opacity: 1;
        animation-timing-function: cubic-bezier(0.3, 0, 0.3, 1)
      }

      98% {
        opacity: 0
      }

      100% {
        opacity: 0
      }
    }
    #g_cyrl, #l_cyrl, #ya, #igrat_comma, #igrat_word {
      animation: cyrl_flip 10000ms linear infinite normal forwards
    }

    @keyframes cyrl_flip {
      0% {
        transform: scale(1, 1);
      }

      39% {
        transform: scale(1, 1);
        animation-timing-function: cubic-bezier(0.3, 0, 0.75, 0.25)
      }

      40% {
        transform: scale(0, 1);
      }

      90% {
        transform: scale(0, 1);
        animation-timing-function: cubic-bezier(0.25, 0.75, 0.3, 1)
      }

      91% {
        transform: scale(1, 1);
      }

      100% {
        transform: scale(1, 1);
      }
    }

    #g_latn, #l_latn, #y, #a_right {
      animation: latn_flip 10000ms linear infinite normal forwards
    }

    @keyframes latn_flip {
      0% {
        transform: scale(0, 1);
      }

      40% {
        transform: scale(0, 1);
        animation-timing-function: cubic-bezier(0.25, 0.75, 0.3, 1)
      }

      41% {
        transform: scale(1, 1);
      }

      89% {
        transform: scale(1, 1);
        animation-timing-function: cubic-bezier(0.3, 0, 0.75, 0.25)
      }

      90% {
        transform: scale(0, 1);
      }

      100% {
        transform: scale(0, 1);
      }
    }

    #g_cyrl,      #g_latn    {animation-delay: 0ms}
    #l_cyrl,      #l_latn    {animation-delay: 60ms}
    #ya,          #y         {animation-delay: 120ms}
    #igrat_comma, #a_right   {animation-delay: 180ms}
    #igrat_word              {animation_delay: 240ms}

    #hai_text_to {
      animation: hai_text_to__to 10000ms linear infinite normal forwards
    }

    @keyframes hai_text_to__to {
      0% {
        transform: translate(343.252075px, 104.888428px)
      }

      40% {
        transform: translate(343.252075px, 104.888428px);
        animation-timing-function: cubic-bezier(0.3, 0, 0.3, 1)
      }

      50% {
        transform: translate(348.030326px, 104.888433px)
      }

      90% {
        transform: translate(348.030326px, 104.888433px);
        animation-timing-function: cubic-bezier(0.3, 0, 0.3, 1)
      }

      100% {
        transform: translate(343.252075px, 104.888428px)
      }
   }
]]></style>
  <rect
     style="fill:#56405c;fill-opacity:1;stroke:none;stroke-width:144;stroke-opacity:0.318072;paint-order:stroke fill markers;stop-color:#000000"
     id="background"
     width="420"
     height="160"
     x="0"
     y="0" />
  <g
     id="g11">
    <g
       id="hai_text"
       transform="translate(231.288239,59.791016)">
      <path
         d="M259.47461,40.054688c-4.25,0-5.16992,2.304734-5.16992,5.427734c0,3.226,2.09792,4.964844,5.16992,4.964844c3.174,0,5.37695-2.045469,5.37695-4.605469c0-3.635-2.20295-5.785156-5.37695-5.785156v-.001953Zm-54.81055.132812c-2.811-.04-6.53576.391984-6.75976.583984-.358.307-.10344,37.939094.10156,38.246094s9.57451.410078,9.72852.205078c.205-.154.25585-12.696859.25585-14.130859c0-1.536,1.02283-3.328125,3.17383-3.328125s2.86719,2.252844,2.86719,3.839844l-.05078,13.773437c.102.102,9.52308-.0014,9.83008-.359375s.76953-11.058797.76953-14.591797c0-6.656-3.17394-11.417967-10.75196-11.417969-3.53299,0-5.1716,1.28011-6.3496,2.66211.205-1.587.51064-13.364094.30664-14.746094-.077-.518-1.4341-.712328-3.1211-.736328Zm33.61719,12.716797l-.00195.001953c-7.219,0-10.80469,5.120453-10.80469,5.939453c0,.717,4.09564,4.400391,4.55664,4.400391s2.10016-1.94336,4.66016-1.94336c4.454,0,3.68576,3.378702,3.63476,4.095704-.87-.461-1.94614-.972657-3.99414-.972657-5.018,0-9.06055,2.815313-9.06055,7.320313c0,4.71,2.25357,7.78125,7.47657,7.78125c4.301,0,6.40039-2.867188,6.40039-2.867188l.5625,2.201172c0,0,7.88506.307,8.03906,0s.4082-8.959875.4082-14.796875c0-7.526-5.68195-11.160156-11.87695-11.160156Zm19.29883.208984v.001953c-1.755.009-3.19217.09074-3.32617.302735-.358.563.0503,25.49739.15234,25.65039s9.21688.308218,9.42187-.050781.81829-25.394609.61329-25.599609c-.128-.128-3.93633-.318688-6.86133-.304688Zm-19.91602,16.38086c1.178,0,2.15039.921609,2.15039,2.099609s-.71739,2.099609-2.15039,2.099609c-1.178,0-2.09961-.921609-2.09961-2.099609s.81961-2.099609,2.09961-2.099609Z"
         transform="translate(-231.288239,-59.791016)"
         fill="#fffcbc"
         id="path4" />
    </g>
    <path
       id="exclam"
       d="M280.63281,73.12891c0,3.635-1.02423,6.29883-5.99023,6.29883-3.686,0-6.2461-2.45703-6.2461-6.70703c0-2.969,2.5601-5.32617,6.2461-5.32617c3.584,0,5.99023,1.99638,5.99023,5.73438v-.00001Zm-.10351-30.20703c-.154,12.237-3.68692,20.47997-4.04492,21.04297s-3.83993.204-4.04493,0-4.50586-10.65047-4.50586-20.48047c.96-.423,6.75913-.81553,10.20313-.76953c1.148.015,2.03458.07903,2.39258.20703Z"
       transform="translate(.000001 0)"
       fill="#fffcbc" />
    <g
       id="touch_text"
       transform="translate(346.291687,60.242998)">
      <path
         d="M389.73797,40.496c-1.069.006-2.146.147-2.248.326-.154,7.782-.204,38.092-.152,38.297.102.307,4.249.461,4.352.205.154-.154.205-12.39.205-14.643c0-2.97,2.561-5.99,6.605-5.99c3.789,0,5.836,2.969,5.836,6.246l-.102,14.131c.205.154,4.094.411,4.248-.152.256-2.253.514-11.01.514-14.133c0-6.554-3.994-10.187-9.729-10.187-3.686,0-6.502,2.048-7.475,3.789.102-.614.204-16.333.152-17.408-.077-.358-1.138-.487-2.207-.48Zm-97.115,7.385c-1.116-.031-3.219.162-3.564.469-.461.461-.307,6.093-.461,6.195s-4.506-.104-4.711-.053c-.512.154-.256,3.43-.051,3.584.256.154,4.711.205,4.711.256s-.564,11.163-.666,13.979c-.051,4.352,2.047,7.423,7.014,7.475c4.403.102,6.965-2.252,6.965-2.252-.051-.614-.871-3.072-1.383-3.328-.461,0-2.151,1.586-4.762,1.535-2.509-.051-3.328-1.69-3.328-4.045l.512-13.107c0-.205,8.089.256,8.447-.051c0,0,.41-3.02-.051-3.43-.512-.41-8.089-.411-8.191-.359-.102,0,.461-6.502.205-6.758-.051-.064-.314-.099-.686-.109Zm43.635,6.451c-.723.017-1.306.116-1.363.365-.205,2.355-.77,11.417-.77,15.309c0,6.144,2.765,9.984,9.268,9.984c3.226,0,6.452-1.793,7.834-3.738-.051.307-.052,2.101-.104,3.125.358.461,3.841.665,4.148.102l.666-24.525c-.205-.256-4.147-.358-4.301-.102-.154.205-.462,12.902-.514,14.592-.102,3.635-2.662,6.502-6.758,6.502-3.789-.051-5.734-2.305-5.734-6.145c0-2.765.615-13.72.615-15.205-.192-.096-1.784-.293-2.988-.264Zm37.273.16c-7.782,0-11.828,6.35-11.828,12.545s3.278,12.596,11.982,12.596c3.686,0,6.654-1.639,8.088-3.533-.666-1.434-1.74-3.021-2.047-2.816-.717.512-2.919,2.252-5.939,2.252-2.611,0-7.525-1.381-7.525-8.293c0-5.53,3.225-8.5,7.525-8.5c3.533,0,5.99,2.305,6.451,2.305.614-.051,1.741-3.072,1.588-3.635-.154-.512-3.175-2.92-8.295-2.92Zm-56.852.053c-7.578,0-11.775,6.092-11.775,12.287c0,8.038,5.018,12.748,11.879,12.748c7.68-.154,11.775-5.479,11.775-12.391c0-8.346-5.069-12.645-11.879-12.645Zm.104,4.453c3.891.051,7.32,1.843,7.32,8.09c0,5.325-2.508,8.397-7.475,8.346-3.891,0-7.27-2.662-7.27-8.396c0-4.557,2.355-8.09,7.424-8.039Z"
         transform="translate(-346.291687,-60.242998)"
         paint-order="stroke fill markers"
         fill="#fff"
         id="path8" />
    </g>
  </g>
  <g
     id="hand"
     transform="translate(-363.863281,-629.168152)">
    <g
       id="hand_tr"
       transform="rotate(-14.999985)">
      <g
         transform="scale(1.28,1.28) translate(0,0)"
         id="g21">
        <path
           d="M183.542,567.643c4.604.064,9.096,3.518,8.187,10.322l-.137,1.081c2.601-10.822,18.642-6.547,16.039,3.132-4.058,15.084-6.509,28.527-6.862,43.189l-4.838,30.085c-6.365-.154-12.947-.975-24.031-.689-16.351.421-16.759-17.843-19.143-34.808-1.379-9.812-3.845-19.475-6.631-27.14-3.719-10.234,8.422-15.007,12.928-7.481l-.027-.106c-3.778-13.774,12.901-16.85,15.737-6.476l-.081-1.088c-.46-6.759,4.255-10.084,8.859-10.02Z"
           paint-order="stroke fill markers"
           fill="#6594e5"
           id="path13" />
        <path
           d="M198.769,625.318c.353-14.662,2.269-28.152,5.764-43.215c1.486-6.403-9.671-9.041-10.37-2.007-1.251,12.596-1.741,22.677-3.103,33.033l-3.982-.795c.065-10.684,1.016-23.94,2.234-35.305.931-8.687-12.533-9.516-12.064-.071.512,10.318,1.527,23.981.422,34.451l-3.458.227c-1.196-9.588-1.945-19.511-1.707-29.378.227-9.423-14.659-7.774-11.479,3.017c2.85,9.672,3.268,19.263,4.807,28.344l-3.244.772c-1.523-6.835-3.331-16.214-3.959-23.525-.857-9.985-12.696-6.92-9.849,2.012c2.477,7.77,4.594,17.314,5.973,27.126c2.384,16.965,4.566,33.085,17.191,32.76c11.084-.286,17.667.536,24.032.69"
           paint-order="stroke fill markers"
           fill="#c8f3ff"
           id="path15" />
        <path
           d="M220.658,604.523c-6.619-7.847-19.844-5.86-20.291,17.19-11.156-6.419-26.67,5.789-22.595,17.135c3.931,10.946,14.644,16.52,18.158,16.604c16.206.391,18.025-32.533,24.728-50.929Z"
           paint-order="stroke fill markers"
           fill="#6594e5"
           id="path17" />
        <path
           d="M217.455,605.324c-7.609-7.761-14.179.536-14.543,20.184-11.156-6.419-24.88,2.584-25.139,13.34s7.341,14.343,18.206,14.605c14.706.355,14.773-29.732,21.476-48.129Z"
           paint-order="stroke fill markers"
           fill="#c8f3ff"
           id="path19" />
      </g>
    </g>
  </g>
  <g
     id="eQDJpaBvkjY11_to"
     transform="translate(101.143837,-728.404297)">
    <g
       id="eQDJpaBvkjY11_tr"
       transform="rotate(14.999985)">
      <g
         transform="scale(1.28,1.28) translate(0,0)"
         id="g29">
        <path
           d="M188.613,569.209c-4.604-.047-9.179,3.297-8.434,10.121l.111,1.084c-2.339-10.882-18.479-6.994-16.109,2.744c2.454,10.085,4.196,19.432,5.102,28.869-3.392-12.735-13.131-13.091-18.664-6.844c6.257,18.553,7.281,51.51,23.492,51.51c6.367,0,12.967-.662,24.041-.109c16.336.815,17.184-17.434,19.977-34.336c1.615-9.776,4.314-19.377,7.283-26.973c3.965-10.141-8.058-15.206-12.744-7.791.011-.035.019-.07.029-.105c4.109-13.679-12.491-17.156-15.576-6.854l.107-1.086c.623-6.746-4.011-10.184-8.615-10.23Z"
           paint-order="stroke fill markers"
           fill="#f63886"
           id="path25" />
        <path
           d="M188.641,571.76c-3.193.036-6.382,2.34-6.021,6.693.944,11.391,1.573,24.665,1.381,35.348l-4,.699c-1.112-10.385-1.358-20.475-2.305-33.098-.529-7.049-11.747-4.682-10.416,1.756c3.026,14.633,4.598,27.77,4.701,41.871-1.440786.328467-2.829491.853732-4.127,1.561.11-19.651-6.256-28.104-14.051-20.529c6.257,18.553,5.598,48.633,20.309,48.633c6.367,0,12.967-.662,24.041-.109c12.613.63,15.184-15.434,17.977-32.336c1.615-9.776,3.961-19.264,6.625-26.973c3.062-8.861-8.699-12.211-9.797-2.25-.804,7.294-2.838,16.625-4.525,23.422l-3.225-.85c1.757-9.041,2.407-18.618,5.49-28.219c3.439-10.712-11.404-12.72-11.404-3.295c0,9.87-.987,19.774-2.414,29.33l-3.451-.311c-.852-10.494.491-24.129,1.252-34.432.348-4.715-2.846-6.948-6.039-6.912Z"
           paint-order="stroke fill markers"
           fill="#ffc2ee"
           id="path27" />
      </g>
    </g>
  </g>
  <g
     transform="translate(0 2.262924)"
     id="g49"
     inkscape:label="subtitle">
    <g
       id="dot_to"
       inkscape:label="dot"
       transform="translate(236,100)">
      <path
         id="dot"
         d="m 5.85601,10.93329 c 0,-4.176 -2.64,-5.568 -5.184,-5.712 -4.224,-0.24 -6.528,2.064 -6.528,5.856 0,3.408 2.64,5.616 5.088,5.712 4.272,0.144 6.624,-2.112 6.624,-5.856 z"
         fill="#7e708a" />
    </g>
    <g
       id="slash_to"
       transform="translate(296,100)"
       inkscape:label="slash">
      <path
         id="slash"
         d="m -13.74647,19.91716 c 0,0.624 8.30901,2.997 9.07701,3.189 0.768,0.192 16.416,-39.407998 16.416,-39.647998 0,-0.24 -9.26901,-2.565008 -9.26901,-2.565008 -0.096,0.096 -16.224,38.880006 -16.224,39.024006 z"
         fill="#7e708a" />
    </g>
    <g
       id="g_group"
       transform="translate(250.00718)">
      <path
         d="m 9.9932181,92.696907 0.8639999,-9.312 -20.0159999,1.152 -0.048,31.008003 h 8.35199998 c 0.096,-5.232 0.24,-13.056 0.384,-23.520003 z"
         id="g_cyrl"
         style="font-size:48px;line-height:1.2;font-family:'Tobi Greek Cyrillic';-inkscape-font-specification:'Tobi Greek Cyrillic, Normal';font-feature-settings:'ss01';text-align:center;letter-spacing:0px;text-anchor:middle;display:inline;fill:#dad5dc;stroke:#56405c;stroke-width:4;stroke-linejoin:round;paint-order:stroke fill markers"
         inkscape:label="g_cyrl" />
      <path
         d="m 12.21644,92.379531 -7.872,0.432 0.048,2.256 c -1.296,-1.584 -3.408,-2.304 -6.336,-2.16 -2.64,0.144 -4.896,1.152 -6.768,3.024 -1.872,1.872 -2.784,4.511999 -2.784,7.871999 0,3.264 0.864,5.904 2.592,7.968 1.776,2.064 4.224,3.072 7.392,3.024 2.544,0 4.416,-0.672 5.616,-1.968 0,3.408 -2.064,4.896 -4.608,5.136 -0.432,0.192 -1.776,-0.096 -2.16,-0.096 -0.384,0.048 -1.584,-0.336 -1.92,-0.384 -0.24,0 -1.344,-0.48 -1.536,-0.528 -0.192,-0.048 -1.152,-0.528 -1.2,-0.528 l -1.728,7.44 c 2.496,1.392 5.472,2.064 8.928,2.064 4.128,0 7.152,-1.104 9.12,-3.312 1.92,-2.112 2.928,-5.472 2.976,-10.128 z m -11.904,7.392 c 2.16,0 3.888,1.823999 3.888,4.271999 0,2.304 -1.728,4.176 -3.888,4.176 -2.448,0 -4.032,-1.68 -4.032,-4.176 0,-2.448 1.728,-4.271999 4.032,-4.271999 z"
         id="g_latn"
         style="font-size:48px;line-height:1.2;font-family:'Tobi Greek Cyrillic';-inkscape-font-specification:'Tobi Greek Cyrillic, Normal';font-feature-settings:'ss01';text-align:center;letter-spacing:0px;text-anchor:middle;fill:#dad5dc;stroke:#56405c;stroke-width:4;stroke-linejoin:round;paint-order:stroke fill markers"
         inkscape:label="g_latn" />
    </g>
    <g
       id="a_group"
       transform="translate(278)"
       style="display:inline">
      <path
         d="m 4.64844,115.65953 h 7.104 l 0.384,-23.567999 -8.784,0.672 -0.096,2.4 c -1.2,-1.92 -3.744,-2.832 -6.192,-2.784 -2.88,0.048 -5.328,1.056 -7.296,2.928 -1.968,1.872 -2.976,4.847999 -2.976,8.975999 0,3.984 0.96,6.96 2.88,8.976 1.968,1.968 4.368,3.024 7.248,3.168 2.544,0.144 5.52,-0.672 7.056,-2.4 z m -5.136,-16.031999 c 2.352,0 4.08,1.871999 4.032,4.799999 0,2.544 -1.584,4.752 -4.032,4.752 -2.448,0 -4.176,-2.016 -4.176,-4.752 0,-3.024 1.728,-4.799999 4.176,-4.799999 z"
         id="a"
         style="fill:#dad5dc;stroke:#56405c;stroke-width:4;stroke-linejoin:round;paint-order:stroke fill markers"
         inkscape:label="a" />
    </g>
    <g
       id="l_group"
       transform="translate(308)">
      <path
         d="m 3.3574955,99.19813 -0.144,16.08 h 8.4479995 l 0.288,-23.28 -19.0559995,0.816 c 0.192,2.304 0.288,4.656 0.096,8.304 -0.144,3.6 -1.152,6.24 -2.928,6.432 -0.8160005,0.096 -1.5360005,-0.096 -2.1600005,-0.528 l -1.536,7.2 c 1.488,1.44 3.6,2.064 6.3360005,1.872 3.216,-0.192 5.376,-2.208 6.57599995,-6.048 0.672,-2.16 1.056,-5.664 1.2,-10.56 z"
         id="l_cyrl"
         style="fill:#dad5dc;stroke:#56405c;stroke-width:4;stroke-linejoin:round;paint-order:stroke fill markers" />
      <path
         d="m 3.7970062,114.27812 0.192,-32.591998 -8.736,0.816 0.624,31.775998 z"
         id="l_latn"
         style="fill:#dad5dc;stroke:#56405c;stroke-width:4;stroke-linejoin:round;paint-order:stroke fill markers" />
    </g>
    <g
       id="ya_group"
       transform="translate(339)">
      <path
         d="m -2.4269828,92.38127 -8.7840002,1.008 -0.336,12.672 c -0.624,0.528 -1.296,0.768 -2.016,0.768 -1.44,0 -2.112,-0.912 -2.064,-2.688 l 0.336,-11.76 -8.88,1.008 -0.096,11.76 c 0,2.352 0.288,4.032 0.816,5.136 1.152,2.208 3.312,3.312 6.528,3.264 2.208,0 4.08,-0.576 5.568,-1.68 h 0.048 c 0,3.936 -1.68,5.904 -4.992,5.952 -1.68,0 -3.648,-0.48 -5.952,-1.392 l -1.728,7.392 c 2.832,1.584 6.096,2.256 9.744,2.112 3.984,-0.096 6.9600002,-1.44 8.9280002,-4.032 0.816,-1.056 1.392,-2.256 1.776,-3.552 0.336,-1.2 0.528,-3.456 0.624,-6.672 z"
         id="y"
         style="fill:#dad5dc;stroke:#56405c;stroke-width:4;stroke-linejoin:round;paint-order:stroke fill markers" />
      <path
         d="m 17.780977,115.66127 h 7.104 l 0.384,-23.568 -8.784,0.672 -0.096,2.4 c -1.2,-1.92 -3.744,-2.832 -6.192,-2.784 -2.8800001,0.048 -5.3280001,1.056 -7.2960001,2.928 -1.96799997,1.872 -2.97599997,4.848 -2.97599997,8.976 0,3.984 0.96,6.96 2.87999997,8.976 1.968,1.968 4.368,3.024 7.2480001,3.168 2.544,0.144 5.52,-0.672 7.056,-2.4 z m -5.136,-16.032 c 2.352,0 4.08,1.872 4.032,4.8 0,2.544 -1.584,4.752 -4.032,4.752 -2.448,0 -4.1760001,-2.016 -4.1760001,-4.752 0,-3.024 1.7280001,-4.8 4.1760001,-4.8 z"
         id="a_right"
         style="fill:#dad5dc;stroke:#56405c;stroke-width:4;stroke-linejoin:round;paint-order:stroke fill markers" />
      <path
         d="m -12.205175,113.02127 6.5280002,3.984 7.344,-8.352 h 0.624 l 0.192,7.056 h 8.0639998 l 0.624,-22.896 c -2.7359998,-0.816 -6.1439998,-1.248 -10.17599979,-1.392 -3.45600001,-0.048 -6.19200001,0.432 -8.16000001,1.44 -3.0240002,1.584 -4.4640002,3.888 -4.3200002,6.96 0.24,3.696 2.1120002,6.048 5.6160002,7.056 z m 14.7360002,-9.264 c -1.58399999,0.048 -3.02399999,-0.192 -4.32,-0.72 -1.248,-0.576 -1.824,-1.488 -1.728,-2.784 0.096,-1.344 0.816,-2.208 2.16,-2.544 1.39200001,-0.384 2.688,-0.336 3.936,0.144 z"
         id="ya"
         style="fill:#dad5dc;stroke:#56405c;stroke-width:4;stroke-linejoin:round;paint-order:stroke fill markers" />
    </g>
    <g
       aria-label=", играть!"
       id="igrat"
       style="fill:#dad5dc;stroke:#56405c;stroke-width:4;stroke-linejoin:round;paint-order:stroke fill markers"
       transform="translate(347)">
      <path
         d="m -53.379039,113.45327 c -0.128,-2.08 -1.44,-3.264 -3.104,-3.264 -1.536,0 -2.784,1.088 -2.912,2.912 -0.096,1.664 0.896,2.912 2.592,2.912 0.032,0.416 -0.192,0.96 -0.672,1.632 -0.48,0.672 -1.088,1.216 -1.76,1.632 l 1.792,1.984 c 1.184,-0.864 2.112,-1.856 2.784,-2.912 0.928,-1.6 1.376,-3.232 1.28,-4.896 z"
         id="igrat_comma" />
      <path
         id="igrat_word"
         style="stroke:none"
         d="m 48.656335,93.260514 0.41602,14.880856 5.08789,-0.22461 0.73633,-14.656246 z m -90.867273,6.464843 -6.175781,0.863283 0.703125,15.07226 h 4.800782 l 4.640624,-7.07226 -0.255859,7.07226 h 5.439453 l 0.958985,-15.744136 -5.375,0.449216 -5.056641,7.80664 z m 35.055811,0.126953 c -1.823998,-0.032 -3.359423,0.57667 -4.607422,1.88867 l 0.03125,-1.69531 -5.919922,0.60742 0.03125,21.1836 h 5.3125 l 0.19336,-7.61524 c 0.991999,1.12 2.430361,1.66361 4.318359,1.59961 2.207998,-0.064 3.872188,-0.86439 4.992187,-2.40039 1.119999,-1.568 1.664063,-3.48702 1.664063,-5.79102 0,-4.47999 -1.919629,-7.64934 -6.015625,-7.77734 z m 23.530842,0.09766 -5.855469,0.44726 -0.06445,1.59961 c -0.799999,-1.28 -2.494955,-1.88747 -4.126953,-1.85547 -1.919998,0.032 -3.553236,0.70318 -4.865235,1.95117 -1.311998,1.248 -1.982421,3.23238 -1.982421,5.98438 0,2.656 0.639923,4.64038 1.919921,5.98437 1.311999,1.312 2.912034,2.01533 4.832032,2.11133 1.695998,0.096 3.679126,-0.44761 4.703125,-1.59961 l 0.449219,1.08789 h 4.734374 z m -35.217765,0.1914 -12.193359,0.54297 0.160156,14.97656 h 5.664063 l 0.128906,-9.98437 6.271484,-0.22266 z m 50.039208,0 -13.919926,0.54297 0.126954,5.44141 4.095702,-0.19336 0.0957,9.72851 h 5.60157 l 0.12695,-9.88671 3.9043,-0.22461 z m 6.450857,0.0957 -5.63086,0.57617 c 0.256,4.79999 0.47912,9.66455 0.70312,14.56054 2.208,0.576 4.3524,0.83233 6.40039,0.73633 2.144,-0.096 3.93576,-0.64156 5.34375,-1.60156 1.792,-1.28 2.6875,-3.0076 2.6875,-5.18359 0,-3.456 -2.0467,-5.63161 -5.4707,-5.59961 -1.44,0 -2.7203,0.31973 -3.9043,0.92773 z m -47.17033,4.57617 c 1.663999,0 2.783204,1.18322 2.783204,3.19922 0,1.88799 -1.151205,3.07226 -2.783204,3.07226 -1.503998,0 -2.689453,-1.15227 -2.689453,-3.07226 0,-2.08 1.121455,-3.19922 2.689453,-3.19922 z m 17.482014,0.16015 c 1.567999,0 2.721453,1.24722 2.689453,3.19922 0,1.696 -1.057454,3.16797 -2.689453,3.16797 -1.631998,0 -2.783203,-1.34397 -2.783203,-3.16797 0,-2.016 1.151205,-3.19922 2.783203,-3.19922 z m 31.801596,3.00782 c 0,-1.152 1.85547,0.79947 1.85547,1.85547 0.032,1.24799 -0.86379,2.01653 -2.17578,2.14453 -0.384,0.032 -0.83175,2.9e-4 -1.34375,-0.0957 l -0.16016,-3.29687 c 0.544,-0.416 1.82422,0.0646 1.82422,-0.60742 z m 11.71145,2.24023 c -1.824,0 -2.94532,1.24736 -2.94532,2.94336 0,1.696 1.05732,2.94531 2.94532,2.94531 1.92,0 2.97461,-1.24931 2.97461,-2.94531 0,-1.696 -1.05461,-2.94336 -2.97461,-2.94336 z" />
    </g>
  </g>
</svg>
