<svg xmlns="http://www.w3.org/2000/svg" width="512" height="128" xmlns:v="https://vecta.io/nano"><g fill-rule="evenodd"><path d="M123.068 5.273L71.02 26.354l27.963 13.161 21.828-10.188 2.257-1.053 23.931 11.169 28.114-13.393zm54.57 23.999l-28.08 14.893v28.665L125.78 85.031l-.713 37.68 52.57-31.674zm-109.14.31v61.832l52.574 31.314-.715-37.697-23.778-12.201V44.31z" fill="#fff" paint-order="fill markers stroke"/><path d="M123.068 34.163l-21.153 9.873V69.57l21.153 10.854 21.153-10.854V44.036z" fill="#27ffb4" paint-order="stroke fill markers"/></g><path d="M237.49 6.291v1.857c1.108 1.348 1.721 3.183 1.721 5.404 0 2.382-.573 4.331-1.721 5.746v9.068h12.559v-4.86h-6.821V19.7h6.47v-4.86h-6.47v-3.689h6.821v-4.86zm51.699 0v10.661c0 2.413-.847 5.305-3.698 6.553v4.86h22.543v-4.86h-1.957V6.291zm5.738 4.867h5.413v12.348h-7.734c1.479-1.098 2.321-3.382 2.321-6.65zm-73.484 17.207h5.738v-7.319h3.25c5.006 0 7.817-2.283 7.817-7.495 0-5.065-3.279-7.26-8.021-7.26h-8.783zm5.738-17.448h.966c2.225 0 4.128.029 4.128 2.81 0 2.693-2.049 2.693-4.128 2.693h-.966zm23.832-4.626v4.86.964h-.351v1.761 6.787 1.879h.351v5.823h8.49c4.04 0 7.992-1.522 7.992-6.148 0-3.074-1.347-5.211-4.508-5.621v-.059c1.786-.908 2.43-2.518 2.43-4.508 0-4.216-2.635-5.738-6.558-5.738zm5.387 4.391h.41c1.552 0 3.338.117 3.338 2.137 0 1.874-1.581 2.137-3.103 2.137h-.644zm1.326 8.543c1.799-.014 3.973.076 3.973 2.407 0 2.43-2.869 2.342-4.567 2.342h-.732v-4.743h.586l.741-.006zm-70.66-12.934v22.074h5.738V11.158h7.459v17.207H206V6.291zm33.038 4.86v-4.86h-12.559v22.074h12.559v-4.86h-6.821v-3.806h6.47v-4.86h-6.47V11.15zm56.792-5.592c-4.302 0-8.373 2.15-10.555 5.609a9.54 9.54 0 0 1 .039.861c0 1.538-.447 3.006-1.419 4.128.911.386 1.681.937 2.235 1.67.896 1.188 1.263 2.712 1.263 4.39 0 1.174-.257 2.203-.687 3.09 2.182 2.382 5.379 3.79 9.125 3.79 2.966 0 5.585-.885 7.632-2.435v-3.787l.577-.253c2.414-1.057 3.121-3.483 3.121-5.67v-4.314c-1.863-4.311-6.447-7.079-11.33-7.079zm0 5.563c3.425 0 6.235 2.781 6.235 5.826 0 3.806-2.81 6.587-6.235 6.587s-6.236-2.781-6.236-6.587c0-3.045 2.811-5.826 6.236-5.826zm-12.153 7.041c.171 1.983.752 3.776 1.667 5.31a6.24 6.24 0 0 0 .122-1.255c0-1.396-.306-2.477-.874-3.228-.245-.325-.546-.6-.915-.826zm22.675 5.253c-.292.238-.613.457-.963.653v.733c.353-.435.675-.897.963-1.386zm-74.963 24.726h11.489V36.37h-36.878v11.773h11.489v41.701h13.9zm87.784 0V36.37h-30.425v53.474h30.425V78.071h-16.524v-9.22h15.673V57.078h-15.673v-8.936zm22.793 19.574h1.418c4.539 0 11.418-.638 11.418 5.815 0 5.886-6.95 5.674-11.064 5.674h-1.773zm7.518 22.127c9.787 0 19.361-3.688 19.361-14.893 0-7.447-3.262-12.624-10.922-13.617v-.142c4.326-2.199 5.886-6.099 5.886-10.922 0-10.212-6.383-13.9-15.886-13.9h-19.858v53.474zm-7.518-42.836h.993c3.759 0 8.085.284 8.085 5.177 0 4.539-3.83 5.177-7.518 5.177h-1.56zm84.373 14.255l-20.921 28.581h16.808l12.269-17.446 11.205 17.446h16.737l-19.787-28.581 17.092-24.893h-17.092l-8.156 13.829-8.156-13.829h-17.092zm-35.168-26.665c-10.193 0-19.829 4.996-25.193 13.056a22.47 22.47 0 0 1 .167 2.617c0 3.728-1.084 7.281-3.44 10.001 2.208.935 4.074 2.268 5.415 4.044 2.171 2.877 3.06 6.571 3.06 10.635 0 2.97-.669 5.566-1.801 7.775 5.277 5.582 12.883 8.891 21.792 8.891 4.181 0 8.072-.736 11.578-2.081l17.858-24.397c.086-.99.137-1.997.137-3.025 0-2.013-.221-3.951-.636-5.802l-11.06-16.106a31.33 31.33 0 0 0-17.878-5.609zM226.279 36.37v14.107h-3.002v39.366h13.9V67.929h20.07v21.914h10.231V36.37h-10.231v20.637h-20.07V36.37zm145.958 11.701c8.298 0 15.107 6.738 15.107 14.114 0 9.22-6.809 15.956-15.107 15.956s-15.105-6.736-15.105-15.956c0-7.376 6.808-14.114 15.105-14.114zm-29.45 16.786c.403 5.133 1.94 9.743 4.38 13.638.261-1.046.409-2.211.409-3.545 0-3.382-.744-6.001-2.118-7.822-.693-.918-1.557-1.681-2.671-2.271z" paint-order="stroke fill markers" fill="#fff"/></svg>